# xmcd
#
# Track frame offsets:
#	150
#	26969
#	44442
#	62369
#	75890
#	94931
#	108448
#	133608
#	150086
#	164111
#	185676
#	207064
#
# Disc length: 3063 seconds
#
# Revision: 0
# Processed by: cddbd v1.5.1PL2 Copyright (c) Steve Scherf et al.
# Submitted via: audiograbber 1.83.01
#
DISCID=960bf50c
DTITLE=Fall In Blues - Goin Away
DYEAR=2003
DGENRE=Blues
TTITLE0=Goin Away
TTITLE1=Bluesman
TTITLE2=Deadend Street
TTITLE3=Back Water
TTITLE4=I Can't See The Light Of Day
TTITLE5=Jackpot
TTITLE6=Stranger In Your Town
TTITLE7=Dear Brother
TTITLE8=Hey Girl
TTITLE9=Help Me
TTITLE10=You And Me
TTITLE11=Hard To Stumble
EXTD=
EXTT0=
EXTT1=
EXTT2=
EXTT3=
EXTT4=
EXTT5=
EXTT6=
EXTT7=
EXTT8=
EXTT9=
EXTT10=
EXTT11=
PLAYORDER=
